#Exported from google sketchup
mtllib doghouse.mtl
  v   0.2048   0.6761  -0.2772
  v   0.2048   0.0792  -0.2962
  v   0.2048   0.6761  -0.2962
  v   0.2048   0.0792  -0.2772
  v   0.2048   0.0919  -0.2772
  v   0.2048   0.6761  -0.2962
  v   0.2048   0.0792  -0.2962
  v   0.2048   0.6761  -0.2772
  v   0.2048   0.0792  -0.2772
  v   0.2048   0.0919  -0.2772
  v  -0.4175   0.8094   0.7198
  v   0.3826   0.0792   0.7198
  v  -0.4175   0.0792   0.7198
  v   0.3826   0.8094   0.7198
  v  -0.0174   1.0888   0.7198
  v  -0.4175   0.0792   0.7198
  v   0.3826   0.0792   0.7198
  v  -0.4175   0.8094   0.7198
  v   0.3826   0.8094   0.7198
  v  -0.0174   1.0888   0.7198
  v   0.5160   0.7480  -0.3534
  v  -0.0174   1.0888  -0.3534
  v   0.5160   0.7163  -0.3534
  v  -0.0174   1.1206  -0.3534
  v  -0.5508   0.7480  -0.3534
  v  -0.5508   0.7163  -0.3534
  v   0.5160   0.7163  -0.3534
  v  -0.0174   1.0888  -0.3534
  v   0.5160   0.7480  -0.3534
  v  -0.0174   1.1206  -0.3534
  v  -0.5508   0.7163  -0.3534
  v  -0.5508   0.7480  -0.3534
  v  -0.5508   0.7480   0.7769
  v  -0.0174   1.0888   0.7769
  v  -0.5508   0.7163   0.7769
  v  -0.0174   1.1206   0.7769
  v   0.5160   0.7480   0.7769
  v   0.5160   0.7163   0.7769
  v  -0.5508   0.7163   0.7769
  v  -0.0174   1.0888   0.7769
  v  -0.5508   0.7480   0.7769
  v  -0.0174   1.1206   0.7769
  v   0.5160   0.7163   0.7769
  v   0.5160   0.7480   0.7769
  v   0.2048   0.0919  -0.2772
  v  -0.2397   0.0792  -0.2772
  v   0.2048   0.0792  -0.2772
  v  -0.2397   0.0919  -0.2772
  v   0.2048   0.0792  -0.2772
  v  -0.2397   0.0792  -0.2772
  v   0.2048   0.0919  -0.2772
  v  -0.2397   0.0919  -0.2772
  v  -0.2397   0.0792  -0.2772
  v  -0.2397   0.6761  -0.2962
  v  -0.2397   0.0792  -0.2962
  v  -0.2397   0.6761  -0.2772
  v  -0.2397   0.0919  -0.2772
  v  -0.2397   0.0792  -0.2962
  v  -0.2397   0.6761  -0.2962
  v  -0.2397   0.0792  -0.2772
  v  -0.2397   0.6761  -0.2772
  v  -0.2397   0.0919  -0.2772
  v  -0.2397   0.0919  -0.2772
  v  -0.3921   0.0919   0.7134
  v  -0.3921   0.0919  -0.2772
  v   0.3572   0.0919   0.7134
  v   0.2048   0.0919  -0.2772
  v   0.3572   0.0919  -0.2772
  v  -0.3921   0.0919  -0.2772
  v  -0.3921   0.0919   0.7134
  v   0.3572   0.0919   0.7134
  v   0.3572   0.0919  -0.2772
  v   0.3826   0.0792   0.7198
  v  -0.4175   0.0792  -0.2962
  v  -0.4175   0.0792   0.7198
  v  -0.2397   0.0792  -0.2772
  v   0.2048   0.0792  -0.2772
  v   0.2048   0.0792  -0.2962
  v   0.3826   0.0792  -0.2962
  v  -0.2397   0.0792  -0.2962
  v  -0.4175   0.0792   0.7198
  v  -0.4175   0.0792  -0.2962
  v   0.3826   0.0792   0.7198
  v   0.2048   0.0792  -0.2962
  v   0.3826   0.0792  -0.2962
  v  -0.2397   0.0792  -0.2962
  v   0.5160   0.7480  -0.3534
  v  -0.0174   1.1206   0.7769
  v  -0.0174   1.1206  -0.3534
  v   0.5160   0.7480   0.7769
  v   0.5160   0.7163   0.7769
  v   0.5160   0.7480  -0.3534
  v   0.5160   0.7163  -0.3534
  v   0.5160   0.7480   0.7769
  v   0.5160   0.7163  -0.3534
  v   0.5160   0.7480  -0.3534
  v   0.5160   0.7163   0.7769
  v   0.5160   0.7480   0.7769
  v  -0.5508   0.7163   0.7769
  v  -0.4175   0.8094   0.7198
  v  -0.5508   0.7163  -0.3534
  v  -0.0174   1.0888   0.7769
  v  -0.0174   1.0888   0.7198
  v  -0.4175   0.8094  -0.2962
  v  -0.0174   1.0888  -0.3534
  v  -0.0174   1.0888  -0.2962
  v  -0.5508   0.7163  -0.3534
  v  -0.4175   0.8094   0.7198
  v  -0.5508   0.7163   0.7769
  v  -0.0174   1.0888   0.7769
  v  -0.0174   1.0888   0.7198
  v  -0.0174   1.0888  -0.3534
  v  -0.4175   0.8094  -0.2962
  v  -0.0174   1.0888  -0.2962
  v  -0.4175   0.8094   0.7198
  v  -0.4175   0.8094  -0.2962
  v  -0.4175   0.0792   0.7198
  v  -0.4175   0.8094  -0.2962
  v  -0.4175   0.0792  -0.2962
  v  -0.0174   1.1206  -0.3534
  v  -0.5508   0.7480   0.7769
  v  -0.5508   0.7480  -0.3534
  v  -0.0174   1.1206   0.7769
  v   0.3826   0.8094  -0.2962
  v   0.3826   0.0792  -0.2962
  v  -0.0174   1.0888  -0.2962
  v  -0.5508   0.7480   0.7769
  v  -0.5508   0.7163  -0.3534
  v  -0.5508   0.7480  -0.3534
  v  -0.5508   0.7163   0.7769
  v  -0.5508   0.7480  -0.3534
  v  -0.5508   0.7163  -0.3534
  v  -0.5508   0.7480   0.7769
  v  -0.5508   0.7163   0.7769
  v   0.5160   0.7163   0.7769
  v  -0.0174   1.0888   0.7198
  v  -0.0174   1.0888   0.7769
  v   0.3826   0.8094   0.7198
  v   0.3826   0.8094  -0.2962
  v  -0.0174   1.0888  -0.3534
  v  -0.0174   1.0888  -0.2962
  v   0.5160   0.7163  -0.3534
  v  -0.0174   1.0888   0.7769
  v  -0.0174   1.0888   0.7198
  v   0.5160   0.7163   0.7769
  v   0.3826   0.8094   0.7198
  v   0.3826   0.8094  -0.2962
  v  -0.0174   1.0888  -0.2962
  v  -0.0174   1.0888  -0.3534
  v   0.5160   0.7163  -0.3534
#  150 elements
  vt  -0.0156   0.4896 0.0000
  vt   0.0000   0.0000 0.0000
  vt   0.0000   0.4896 0.0000
  vt  -0.0156   0.0000 0.0000
  vt  -0.0156   0.0104 0.0000
  vt  -0.3131   0.7380 0.0000
  vt   0.3098   0.7380 0.0000
  vt  -0.3131   0.7181 0.0000
  vt   0.3098   0.7181 0.0000
  vt   0.2965   0.7181 0.0000
  vt  -0.4523   2.8188 0.0000
  vt   0.3098   1.9838 0.0000
  vt   0.3098   2.8188 0.0000
  vt  -0.4523   1.9838 0.0000
  vt  -0.7438   2.4013 0.0000
  vt   0.3098  -0.9716 0.0000
  vt   0.3098  -1.8066 0.0000
  vt  -0.4523  -0.9716 0.0000
  vt  -0.4523  -1.8066 0.0000
  vt  -0.7438  -1.3891 0.0000
  vt   0.7656   0.5486 0.0000
  vt   0.3281   0.8281 0.0000
  vt   0.7656   0.5226 0.0000
  vt   0.3281   0.8542 0.0000
  vt  -0.1094   0.5486 0.0000
  vt  -0.1094   0.5226 0.0000
  vt  -0.3551   1.0627 0.0000
  vt  -0.7438   0.5061 0.0000
  vt  -0.3882   1.0627 0.0000
  vt  -0.7770   0.5061 0.0000
  vt  -0.3551  -0.0505 0.0000
  vt  -0.3882  -0.0505 0.0000
  vt   0.1094   0.5486 0.0000
  vt  -0.3281   0.8281 0.0000
  vt   0.1094   0.5226 0.0000
  vt  -0.3281   0.8542 0.0000
  vt  -0.7656   0.5486 0.0000
  vt  -0.7656   0.5226 0.0000
  vt  -0.3551  -1.1373 0.0000
  vt  -0.7438  -1.6940 0.0000
  vt  -0.3882  -1.1373 0.0000
  vt  -0.7770  -1.6940 0.0000
  vt  -0.3551  -2.2506 0.0000
  vt  -0.3882  -2.2506 0.0000
  vt   0.5104   0.0104 0.0000
  vt   0.1458   0.0000 0.0000
  vt   0.5104   0.0000 0.0000
  vt   0.1458   0.0104 0.0000
  vt   0.3098   0.7380 0.0000
  vt   0.3098   0.2742 0.0000
  vt   0.2965   0.7380 0.0000
  vt   0.2965   0.2742 0.0000
  vt   0.0156   0.0000 0.0000
  vt   0.0000   0.4896 0.0000
  vt   0.0000   0.0000 0.0000
  vt   0.0156   0.4896 0.0000
  vt   0.0156   0.0104 0.0000
  vt   0.3098   0.2742 0.0000
  vt  -0.3131   0.2742 0.0000
  vt   0.3098   0.2940 0.0000
  vt  -0.3131   0.2940 0.0000
  vt   0.2965   0.2940 0.0000
  vt   0.1458   0.0156 0.0000
  vt   0.0208   0.8281 0.0000
  vt   0.0208   0.0156 0.0000
  vt   0.6354   0.8281 0.0000
  vt   0.5104   0.0156 0.0000
  vt   0.6354   0.0156 0.0000
  vt   0.2965   0.1151 0.0000
  vt  -0.7372   0.1151 0.0000
  vt  -0.7372   0.8971 0.0000
  vt   0.2965   0.8971 0.0000
  vt  -0.6563   0.8333 0.0000
  vt   0.0000   0.0000 0.0000
  vt   0.0000   0.8333 0.0000
  vt  -0.1458   0.0156 0.0000
  vt  -0.5104   0.0156 0.0000
  vt  -0.5104   0.0000 0.0000
  vt  -0.6563   0.0000 0.0000
  vt  -0.1458   0.0000 0.0000
  vt   1.3502   0.0886 0.0000
  vt   0.2899   0.0886 0.0000
  vt   1.3502   0.9236 0.0000
  vt   0.2899   0.7380 0.0000
  vt   0.2899   0.9236 0.0000
  vt   0.2899   0.2742 0.0000
  vt  -0.1125  -0.7526 0.0000
  vt   2.1125   0.5282 0.0000
  vt  -0.1125   0.5282 0.0000
  vt   2.1125  -0.7526 0.0000
  vt   0.8802   0.5226 0.0000
  vt  -0.0469   0.5486 0.0000
  vt  -0.0469   0.5226 0.0000
  vt   0.8802   0.5486 0.0000
  vt  -0.3551   1.0163 0.0000
  vt  -0.3882   1.0163 0.0000
  vt  -0.3551   2.1959 0.0000
  vt  -0.3882   2.1959 0.0000
  vt   0.8802   0.2095 0.0000
  vt   0.8333   0.3430 0.0000
  vt  -0.0469   0.2095 0.0000
  vt   0.8802   0.7432 0.0000
  vt   0.8333   0.7432 0.0000
  vt   0.0000   0.3430 0.0000
  vt  -0.0469   0.7432 0.0000
  vt  -0.0000   0.7432 0.0000
  vt  -0.3931  -0.0771 0.0000
  vt   0.4278   0.7033 0.0000
  vt   0.5739   0.5983 0.0000
  vt   0.1852   1.1549 0.0000
  vt   0.1363   1.1208 0.0000
  vt  -0.7819   0.4795 0.0000
  vt  -0.4414   0.0962 0.0000
  vt  -0.7330   0.5137 0.0000
  vt  -0.8333   0.5990 0.0000
  vt   0.0000   0.5990 0.0000
  vt  -0.8333   0.0000 0.0000
  vt  -0.4523   0.0886 0.0000
  vt   0.3098   0.0886 0.0000
  vt   0.1125   1.8194 0.0000
  vt  -2.1125   0.5387 0.0000
  vt   0.1125   0.5387 0.0000
  vt  -2.1125   1.8194 0.0000
  vt  -0.4523   0.9236 0.0000
  vt   0.3098   0.9236 0.0000
  vt  -0.7438   0.5061 0.0000
  vt  -0.8802   0.5486 0.0000
  vt   0.0469   0.5226 0.0000
  vt   0.0469   0.5486 0.0000
  vt  -0.8802   0.5226 0.0000
  vt  -0.3882  -0.0042 0.0000
  vt  -0.3551  -0.0042 0.0000
  vt  -0.3882  -1.1837 0.0000
  vt  -0.3551  -1.1837 0.0000
  vt  -0.8802  -0.3285 0.0000
  vt  -0.8333   0.2052 0.0000
  vt  -0.8802   0.2052 0.0000
  vt  -0.8333  -0.1951 0.0000
  vt   0.0000  -0.1951 0.0000
  vt   0.0469   0.2052 0.0000
  vt   0.0000   0.2052 0.0000
  vt   0.0469  -0.3285 0.0000
  vt   0.1852  -0.1427 0.0000
  vt   0.1363  -0.1086 0.0000
  vt   0.5739   0.4139 0.0000
  vt   0.4278   0.3089 0.0000
  vt  -0.4414   0.9160 0.0000
  vt  -0.7330   0.4985 0.0000
  vt  -0.7819   0.5327 0.0000
  vt  -0.3931   1.0893 0.0000
#  150 elements
  vn  -1.0000   0.0000   0.0000
  vn   1.0000   0.0000   0.0000
  vn   0.0000   0.0000   1.0000
  vn  -0.0000  -0.0000  -1.0000
  vn   0.0000   0.0000  -1.0000
  vn  -0.0000   0.0000  -1.0000
  vn   0.0000  -0.0000   1.0000
  vn  -1.0000  -0.0000  -0.0000
  vn   0.0000   1.0000   0.0000
  vn  -0.0000  -1.0000  -0.0000
  vn   0.0000  -1.0000   0.0000
  vn   0.5726   0.8198   0.0000
  vn   0.5726  -0.8198   0.0000
  vn  -0.5726   0.8198  -0.0000
  vn  -0.5726   0.8198   0.0000
  vn  -0.5726  -0.8198   0.0000
#  16 elements
#  116 faces
usemtl __Siding3_1_Siding3_jpg
f 3/3/1 2/2/1 1/1/1
f 4/4/1 1/1/1 2/2/1
f 5/5/1 1/1/1 4/4/1
f 8/8/2 7/7/2 6/6/2
f 7/7/2 8/8/2 9/9/2
f 9/9/2 8/8/2 10/10/2
f 13/13/3 12/12/3 11/11/3
f 14/14/3 11/11/3 12/12/3
f 15/15/3 11/11/3 14/14/3
f 18/18/4 17/17/4 16/16/4
f 17/17/4 18/18/4 19/19/4
f 19/19/4 18/18/4 20/20/4
f 23/23/5 22/22/5 21/21/5
f 24/24/5 21/21/5 22/22/5
f 26/26/5 25/25/5 22/22/5
f 24/24/5 22/22/5 25/25/5
f 29/29/3 28/28/3 27/27/3
f 28/28/3 29/29/3 30/30/3
f 28/28/3 32/32/3 31/31/3
f 32/32/3 28/28/3 30/30/3
f 35/35/3 34/34/3 33/33/3
f 36/36/3 33/33/3 34/34/3
f 38/38/3 37/37/3 34/34/3
f 36/36/3 34/34/3 37/37/3
f 41/41/4 40/40/4 39/39/4
f 40/40/4 41/41/4 42/42/4
f 40/40/4 44/44/4 43/43/4
f 44/44/4 40/40/4 42/42/4
f 47/47/6 46/46/6 45/45/6
f 48/48/6 45/45/6 46/46/6
f 51/51/7 50/50/7 49/49/7
f 50/50/7 51/51/7 52/52/7
f 55/55/2 54/54/2 53/53/2
f 56/56/2 53/53/2 54/54/2
f 57/57/2 53/53/2 56/56/2
f 60/60/8 59/59/8 58/58/8
f 59/59/8 60/60/8 61/61/8
f 61/61/8 60/60/8 62/62/8
f 65/65/9 64/64/9 63/63/9
f 66/66/9 63/63/9 64/64/9
f 67/67/9 63/63/9 66/66/9
f 68/68/9 67/67/9 66/66/9
f 52/52/10 70/70/10 69/69/10
f 70/70/10 52/52/10 71/71/10
f 71/71/10 52/52/10 51/51/10
f 71/71/10 51/51/10 72/72/10
f 75/75/11 74/74/11 73/73/11
f 76/76/11 73/73/11 74/74/11
f 77/77/11 73/73/11 76/76/11
f 78/78/11 73/73/11 77/77/11
f 79/79/11 73/73/11 78/78/11
f 76/76/11 74/74/11 80/80/11
f 83/83/9 82/82/9 81/81/9
f 82/82/9 83/83/9 50/50/9
f 50/50/9 83/83/9 49/49/9
f 49/49/9 83/83/9 84/84/9
f 84/84/9 83/83/9 85/85/9
f 86/86/9 82/82/9 50/50/9
usemtl __Shingles_Asphalt01_1_Shingles_Asphalt01_jpg
f 89/89/12 88/88/12 87/87/12
f 90/90/12 87/87/12 88/88/12
usemtl __Siding3_1_Siding3_jpg
f 93/93/2 92/92/2 91/91/2
f 94/94/2 91/91/2 92/92/2
f 97/97/8 96/96/8 95/95/8
f 96/96/8 97/97/8 98/98/8
f 101/101/13 100/100/13 99/99/13
f 102/102/13 99/99/13 100/100/13
f 103/103/13 102/102/13 100/100/13
f 105/105/13 104/104/13 101/101/13
f 100/100/13 101/101/13 104/104/13
f 106/106/13 104/104/13 105/105/13
f 109/109/14 108/108/14 107/107/14
f 108/108/14 109/109/14 110/110/14
f 108/108/14 110/110/14 111/111/14
f 107/107/14 113/113/14 112/112/14
f 113/113/14 107/107/14 108/108/14
f 112/112/14 113/113/14 114/114/14
f 116/116/1 74/74/1 115/115/1
f 117/117/1 115/115/1 74/74/1
f 18/18/2 119/119/2 118/118/2
f 119/119/2 18/18/2 16/16/2
usemtl __Shingles_Asphalt01_1_Shingles_Asphalt01_jpg
f 122/122/15 121/121/15 120/120/15
f 123/123/15 120/120/15 121/121/15
usemtl __Siding3_1_Siding3_jpg
f 125/125/5 7/7/5 124/124/5
f 6/6/5 124/124/5 7/7/5
f 59/59/5 124/124/5 6/6/5
f 58/58/5 119/119/5 59/59/5
f 118/118/5 59/59/5 119/119/5
f 124/124/5 59/59/5 118/118/5
f 126/126/5 124/124/5 118/118/5
f 124/124/3 7/7/3 125/125/3
f 7/7/3 124/124/3 6/6/3
f 6/6/3 124/124/3 59/59/3
f 59/59/3 119/119/3 58/58/3
f 119/119/3 59/59/3 118/118/3
f 118/118/3 59/59/3 124/124/3
f 118/118/3 124/124/3 126/126/3
f 129/129/1 128/128/1 127/127/1
f 130/130/1 127/127/1 128/128/1
f 133/133/2 132/132/2 131/131/2
f 132/132/2 133/133/2 134/134/2
f 125/125/2 124/124/2 12/12/2
f 14/14/2 12/12/2 124/124/2
f 12/12/8 124/124/8 125/125/8
f 124/124/8 12/12/8 14/14/8
f 137/137/16 136/136/16 135/135/16
f 138/138/16 135/135/16 136/136/16
f 139/139/16 135/135/16 138/138/16
f 141/141/16 140/140/16 139/139/16
f 142/142/16 139/139/16 140/140/16
f 135/135/16 139/139/16 142/142/16
f 145/145/12 144/144/12 143/143/12
f 144/144/12 145/145/12 146/146/12
f 146/146/12 145/145/12 147/147/12
f 147/147/12 149/149/12 148/148/12
f 149/149/12 147/147/12 150/150/12
f 150/150/12 147/147/12 145/145/12